<svg width="32" height="32" viewBox="0 0 32 32" fill="none" xmlns="http://www.w3.org/2000/svg">
  <rect width="32" height="32" rx="16" fill="#4F46E5"/>
  <path d="M16 6C10.48 6 6 10.48 6 16C6 21.52 10.48 26 16 26C21.52 26 26 21.52 26 16C26 10.48 21.52 6 16 6ZM16 24C11.58 24 8 20.42 8 16C8 11.58 11.58 8 16 8C20.42 8 24 11.58 24 16C24 20.42 20.42 24 16 24Z" fill="white"/>
  <path d="M16 9L18.54 14.18L24 15.09L20 19.02L21.08 24.48L16 21.94L10.92 24.48L12 19.02L8 15.09L13.46 14.18L16 9Z" fill="#8B5CF6"/>

</svg> 
