<?xml version="1.0" standalone="no"?>
<!DOCTYPE svg PUBLIC "-//W3C//DTD SVG 20010904//EN"
 "http://www.w3.org/TR/2001/REC-SVG-20010904/DTD/svg10.dtd">
<svg version="1.0" xmlns="http://www.w3.org/2000/svg"
 width="500.000000pt" height="500.000000pt" viewBox="0 0 500.000000 500.000000"
 preserveAspectRatio="xMidYMid meet">

<g transform="translate(0.000000,500.000000) scale(0.100000,-0.100000)"
fill="#000000" stroke="none">
<path d="M4194 2950 c-167 -59 -274 -209 -274 -385 0 -161 94 -306 245 -381
54 -26 70 -29 160 -29 91 0 105 3 160 30 86 43 168 124 207 202 53 108 51 255
-4 367 -44 87 -147 171 -246 201 -65 20 -185 18 -248 -5z m273 -146 c27 -17
48 -35 48 -41 0 -13 -113 -133 -125 -133 -4 0 -13 13 -20 29 -6 16 -20 37 -31
47 -15 13 -19 31 -19 77 l0 60 50 -5 c31 -3 68 -16 97 -34z m-266 -105 c32
-33 59 -64 59 -68 0 -5 -5 -22 -11 -40 l-11 -31 -94 0 -94 0 0 38 c1 57 54
162 82 162 6 0 36 -27 69 -61z m396 -180 c-6 -50 -60 -153 -78 -147 -4 2 -37
31 -73 66 l-65 62 15 35 14 35 97 0 96 0 -6 -51z m-303 -24 l36 -15 0 -95 0
-95 -28 0 c-58 0 -172 54 -172 83 0 7 117 134 126 137 1 0 18 -7 38 -15z"/>
<path d="M301 2924 c-39 -33 -41 -74 -6 -109 33 -34 78 -33 110 1 33 36 31 69
-4 105 -36 36 -60 37 -100 3z"/>
<path d="M1091 2924 c-39 -33 -41 -74 -6 -109 32 -33 75 -33 109 1 41 42 28
104 -27 124 -41 14 -41 14 -76 -16z"/>
<path d="M1590 2550 l0 -390 85 0 85 0 0 128 0 128 33 32 34 33 139 -161 138
-160 105 0 105 0 -35 38 c-88 92 -339 381 -339 389 0 4 78 85 172 180 l173
173 -105 0 -105 0 -157 -157 -158 -158 0 158 0 157 -85 0 -85 0 0 -390z"/>
<path d="M2634 2903 c-112 -266 -304 -731 -304 -736 0 -4 40 -7 89 -7 l88 0
34 83 34 82 167 3 166 2 34 -82 35 -83 92 -3 c52 -1 91 1 89 6 -1 5 -75 181
-163 390 l-159 382 -93 0 -93 0 -16 -37z m161 -301 c26 -62 45 -115 42 -118
-2 -3 -47 -3 -100 -2 l-95 3 40 95 c22 52 44 106 49 119 5 13 11 22 13 20 2
-2 25 -55 51 -117z"/>
<path d="M3210 2549 l0 -390 213 3 c199 3 215 4 255 26 104 56 170 156 191
289 31 199 -58 384 -213 442 -51 19 -77 21 -251 21 l-195 0 0 -391z m399 220
c49 -30 69 -57 87 -119 21 -69 14 -181 -14 -236 -42 -83 -88 -104 -219 -104
l-83 0 0 240 0 240 98 0 c81 0 103 -4 131 -21z"/>
<path d="M290 2702 c-6 -2 -10 -106 -10 -273 l0 -269 70 0 70 0 0 269 0 269
-60 4 c-33 1 -65 2 -70 0z"/>
<path d="M540 2640 l0 -60 100 0 c64 0 100 -4 100 -11 0 -5 -16 -30 -36 -54
-20 -23 -37 -47 -37 -51 -1 -5 -11 -18 -22 -29 -12 -11 -45 -50 -74 -87 -51
-65 -52 -68 -49 -125 l3 -58 220 0 220 0 3 63 3 62 -126 0 c-69 0 -125 4 -125
8 0 5 47 68 105 141 63 78 103 137 99 144 -4 7 -4 9 1 5 17 -16 35 16 35 63
l0 49 -210 0 -210 0 0 -60z"/>
<path d="M1070 2430 l0 -270 70 0 70 0 0 270 0 270 -70 0 -70 0 0 -270z"/>
</g>
</svg>
